<?xml version="1.0" encoding="UTF-8" standalone="no"?>
<!-- Created with Inkscape (http://www.inkscape.org/) -->

<svg
   version="1.1"
   id="svg132"
   width="4687.9658"
   height="1156.9458"
   viewBox="0 0 4687.9658 1156.9458"
   xmlns="http://www.w3.org/2000/svg"
   xmlns:svg="http://www.w3.org/2000/svg">
  <defs
     id="defs136" />
  <g
     id="g138"
     transform="translate(-46.798985,-99.164348)">
    <path
       style="fill:#000000;stroke-width:2.53968"
       d="m 773.08058,1255.1571 c -208.99144,-1.5352 -216.84457,-1.7664 -246.34923,-7.2559 -16.7619,-3.1186 -41.33333,-8.6073 -54.60317,-12.1971 -13.26984,-3.5898 -34.98413,-10.5422 -48.25397,-15.4497 -13.26984,-4.9075 -37.84127,-15.5981 -54.60317,-23.7568 -16.76191,-8.1587 -44.19048,-23.8263 -60.95238,-34.817 -16.76191,-10.9907 -41.33334,-29.0201 -54.60318,-40.0654 -13.26984,-11.0452 -32.02787,-28.0775 -41.68451,-37.8496 -9.65665,-9.772 -26.32067,-28.767 -37.03116,-42.2111 -10.71049,-13.4442 -26.21837,-34.6276 -34.46195,-47.07426 -8.24358,-12.4467 -23.65348,-39.7733 -34.24422,-60.7257 -10.590738,-20.9523 -23.985768,-52.3809 -29.766738,-69.8412 -5.78097,-17.4603 -12.75351,-41.4603 -15.49454,-53.3334 -2.74104,-11.873 -7.06743,-34.1587 -9.61421,-49.5238 -3.47482,-20.964 -4.62767,-41.5645 -4.61912,-82.5396 0.008,-40.0632 1.22897,-62.3563 4.58383,-83.719 2.51484,-16.0137 8.4265,-44.1533 13.13702,-62.5325 4.71052,-18.3792 12.19484,-42.9914 16.63181,-54.69376 4.43698,-11.70235 15.33476,-36.24622 24.217278,-54.54194 8.88253,-18.29572 24.68689,-46.04231 35.12081,-61.6591 10.43391,-15.61678 28.60973,-40.07611 40.3907,-54.3541 11.78096,-14.27797 29.27404,-33.43144 38.8735,-42.56326 9.59946,-9.13183 26.23688,-23.71634 36.97204,-32.41003 10.73516,-8.69369 32.18532,-24.36708 47.66705,-34.82974 15.4817,-10.46267 41.55553,-25.7297 57.94184,-33.92674 16.38628,-8.19705 43.64264,-20.09967 60.56965,-26.45028 16.92703,-6.3506 43.13514,-14.58217 58.24028,-18.29238 15.10511,-3.7102 42.3986,-9.15877 60.65216,-12.10792 32.32373,-5.2224 41.90502,-5.38696 367.79148,-6.31676 l 334.60322,-0.954682 v 67.453862 67.45385 l -116.1905,0.0392 c -63.9048,0.0216 -213.33332,0.39378 -332.06352,0.82719 -191.38688,0.69863 -218.60968,1.28623 -239.99998,5.18036 -13.26984,2.41578 -32.74959,6.57943 -43.2883,9.25253 -10.53872,2.67311 -30.20953,8.85949 -43.71289,13.74751 -13.50337,4.88802 -32.61394,12.94744 -42.46794,17.90983 -9.85397,4.96239 -25.29346,13.53784 -34.30997,19.05654 -9.0165,5.51871 -25.11222,16.4817 -35.76825,24.36221 -10.65605,7.88051 -30.43426,25.34133 -43.95157,38.80183 -13.51733,13.46049 -32.06245,34.18791 -41.21135,46.06092 -9.14893,11.87302 -20.70677,28.44445 -25.68414,36.8254 -4.97734,8.38095 -13.74837,24.64556 -19.49115,36.14357 -5.74278,11.49799 -14.37458,31.49799 -19.18178,44.44449 -4.80721,12.9464 -10.98598,32.6818 -13.73061,43.8564 -2.74464,11.1746 -6.51139,30.6032 -8.37056,43.1746 -1.85917,12.5714 -3.38031,41.7143 -3.38031,64.7619 0,23.0476 1.52114,52.1905 3.38031,64.7619 1.85917,12.5714 5.62592,32 8.37056,43.1746 2.74463,11.1746 8.91966,30.9 13.7223,43.8342 4.80263,12.9343 13.8823,33.7716 20.17705,46.3052 6.29474,12.5336 15.63092,29.3796 20.74709,37.4356 5.11614,8.056 14.47301,21.5044 20.79304,29.8853 6.32002,8.381 18.92896,23.2381 28.01988,33.0159 9.0909,9.7778 24.88523,25.39366 35.09852,34.70206 10.21328,9.3084 30.8335,25.0984 45.8227,35.0889 14.98918,9.9905 36.97933,22.7921 48.86697,28.448 11.88765,5.6559 30.18532,13.6123 40.66151,17.6808 10.47619,4.0685 30.26255,10.2606 43.96968,13.7601 13.70715,3.4996 36.56429,8.018 50.79365,10.041 21.49945,3.0565 81.34454,3.6859 354.12554,3.7246 l 328.25402,0.047 v 67.3016 67.3016 l -111.1111,0.018 c -61.1112,0.01 -118.5397,0.3966 -127.6191,0.8592 -9.07942,0.4627 -113.65082,0.1275 -232.38092,-0.7445 z m 2182.22222,0.4983 -814.6032,-0.6388 v -67.2977 -67.2977 h 1024.6745 c 914.4604,0 1027.7572,-0.4262 1053.3333,-3.9624 15.7623,-2.1794 39.516,-6.7187 52.7858,-10.0875 13.2698,-3.3687 32.8544,-9.5076 43.5213,-13.642 10.6666,-4.1343 28.6707,-12.1812 40.0089,-17.8818 11.3379,-5.7007 28.3007,-15.0694 37.6952,-20.8194 9.3943,-5.75 25.6762,-17.0618 36.1816,-25.1374 10.5056,-8.0756 30.6474,-26.4991 44.7594,-40.94126 14.1122,-14.4421 30.981,-33.3298 37.4867,-41.9728 6.5056,-8.6429 17.41,-24.7141 24.2321,-35.7137 6.8224,-10.9996 16.9374,-29.071 22.478,-40.1586 5.5408,-11.0876 14.1722,-32.1593 19.1807,-46.8259 5.0087,-14.6667 11.5218,-38.6106 14.4731,-53.2086 2.9516,-14.598 6.5491,-39.7409 7.9947,-55.873 1.4456,-16.1321 1.888,-41.9026 0.9831,-57.2676 -0.9049,-15.3651 -3.1992,-37.6508 -5.0989,-49.5238 -1.8995,-11.8731 -5.8019,-30.7302 -8.672,-41.9048 -2.8704,-11.1746 -8.6784,-29.7631 -12.9067,-41.3077 -4.2286,-11.5446 -11.8232,-29.2589 -16.8769,-39.365 -5.054,-10.10623 -14.432,-26.94636 -20.8407,-37.42255 -6.4086,-10.47619 -16.8297,-25.90476 -23.1583,-34.28571 -6.3287,-8.38096 -18.3558,-22.66667 -26.7269,-31.74604 -8.3713,-9.07936 -24.2898,-24.87309 -35.3742,-35.09716 -11.0847,-10.2241 -33.1543,-27.17384 -49.0436,-37.66611 -15.8895,-10.49227 -38.8492,-23.67944 -51.0217,-29.30482 -12.1727,-5.62538 -31.2749,-13.46348 -42.4495,-17.418 -11.1746,-3.95451 -28.8889,-9.51242 -39.3651,-12.3509 -10.4762,-2.83849 -30.4762,-7.10213 -44.4444,-9.47477 -22.1948,-3.76998 -52.2944,-4.42047 -238.7302,-5.15925 -117.3333,-0.46494 -580.4762,-0.84203 -1029.2063,-0.83796 l -815.873,0.007 V 166.71659 99.361118 l 1033.0158,0.749132 1033.0159,0.74913 33.0159,5.49283 c 18.1587,3.02106 40.963,7.35858 50.676,9.63895 9.7133,2.28036 28.3767,7.57889 41.4746,11.77451 13.0979,4.19562 35.9931,12.73081 50.8779,18.9671 14.8851,6.23628 36.7932,16.59628 48.6842,23.02221 11.8913,6.42594 31.8035,18.48049 44.2494,26.7879 12.4457,8.30741 30.7315,21.55186 40.635,29.43212 9.9032,7.88025 25.4346,21.16139 34.514,29.51363 9.0793,8.35225 24.3604,23.80749 33.9581,34.34499 9.5974,10.53749 25.7374,30.18765 35.8664,43.66698 10.1293,13.47937 24.1493,34.0508 31.1558,45.71429 7.0065,11.66352 17.4334,30.60043 23.1708,42.08203 5.7374,11.48163 14.8675,32.05305 20.2893,45.71428 5.4214,13.66126 12.7835,34.55294 16.3598,46.42594 3.5764,11.873 8.1887,29.0159 10.2497,38.0952 2.0609,9.0794 5.7968,29.0794 8.302,44.4445 3.3724,20.6847 4.5546,42.1105 4.5546,82.5397 0,40.4291 -1.1822,61.855 -4.5546,82.5396 -2.5052,15.3651 -6.204,35.3651 -8.2197,44.4445 -2.0158,9.0793 -8.9633,33.0749 -15.439,53.3234 -7.6358,23.8751 -18.56,50.2092 -31.0794,74.9206 -10.6176,20.9579 -26.1158,48.3891 -34.4401,60.9584 -8.3243,12.56916 -23.9002,33.71206 -34.6131,46.98406 -10.7131,13.272 -27.3112,32.1578 -36.8846,41.9683 -9.5733,9.8106 -28.2633,26.8726 -41.5332,37.9156 -13.2698,11.0429 -35.9466,27.8709 -50.3931,37.3954 -14.4462,9.5245 -35.5891,22.3662 -46.9841,28.5371 -11.3948,6.1709 -32.9054,16.3952 -47.8012,22.7207 -14.896,6.3254 -38.3245,14.993 -52.0635,19.2612 -13.7391,4.2682 -38.6946,10.5179 -55.4565,13.8882 -16.7619,3.3703 -43.0476,7.409 -58.4127,8.975 -17.6472,1.7985 -105.106,3.0494 -237.4603,3.3964 -115.2381,0.3021 -576.0952,0.2618 -1024.1269,-0.09 z m -1708.5714,-67.9326 v -67.3016 h 284.4444 286.8517 l 8.6662,68.9867 -8.9069,65.6165 h -286.611 -284.4444 z m 571.4285,0 v -67.3016 h 160 160 v 67.3016 67.3016 h -160 -160 z m 547.5168,-219.95326 c -8.2625,-1.2051 -23.6911,-4.5404 -34.2857,-7.4118 -10.5945,-2.8714 -30.8687,-10.8563 -45.0537,-17.7441 -14.185,-6.8879 -34.2898,-19.3604 -44.6773,-27.7168 -10.3876,-8.3563 -22.9038,-20.1033 -27.8139,-26.1043 -4.9102,-6.001 -13.2303,-17.6451 -18.4893,-25.8758 -5.2589,-8.2307 -12.7344,-23.6592 -16.6122,-34.2857 -3.8778,-10.6265 -8.1964,-28.8018 -9.597,-40.3895 -1.571,-12.9981 -1.6875,-27.9094 -0.3041,-38.9268 1.2333,-9.8219 3.5154,-22.6268 5.0713,-28.4552 1.5559,-5.8283 6.5806,-18.7443 11.1661,-28.702 4.5854,-9.9578 13.0632,-24.5024 18.8394,-32.3213 5.7762,-7.819 16.4859,-20.0143 23.7995,-27.1007 7.3135,-7.0865 20.9354,-18.0076 30.2709,-24.2692 9.3356,-6.2617 24.4395,-14.77 33.5643,-18.9073 9.1248,-4.1374 26.2825,-10.3312 38.1283,-13.764 11.8458,-3.4327 33.7699,-7.5584 48.7202,-9.168 20.3916,-2.1955 34.0642,-2.2061 54.7293,-0.042 15.1508,1.5863 37.5514,5.7493 49.7791,9.251 12.2277,3.5017 32.5178,11.4363 45.0893,17.6325 12.5714,6.1962 32.0678,18.5545 43.3252,27.4629 11.2574,8.9084 26.3906,24.0809 33.6292,33.7166 7.2386,9.6357 17.0278,25.5195 21.7534,35.2973 4.7258,9.7778 10.3789,24.6349 12.5625,33.0159 2.1834,8.3809 4.7439,21.8095 5.6899,29.8412 l 1.7202,14.6032 h -155.2132 -155.2133 v 32.4476 c 0,17.8462 1.1884,41.9249 2.6408,53.5083 1.4525,11.5834 4.8737,27.0286 7.6027,34.3226 2.7431,7.3316 9.2281,17.419 14.5021,22.5582 5.2471,5.1129 14.1116,11.2055 19.6989,13.5389 5.6933,2.3778 16.9385,4.2464 25.5827,4.251 9.8957,0.01 19.5211,-1.804 26.8546,-5.048 6.2869,-2.7809 15.07,-8.9238 19.5181,-13.6508 4.4481,-4.7269 10.3884,-14.7037 13.2006,-22.1706 2.8123,-7.467 6.4412,-24.8955 8.0644,-38.7302 l 2.9512,-25.1541 h 79.5333 c 43.7432,0 79.5332,0.8145 79.5332,1.8099 0,0.9955 -4.6525,11.2018 -10.3388,22.6808 -5.6866,11.4789 -17.746,29.5518 -26.7993,40.1621 -9.0532,10.6101 -23.5433,24.4945 -32.2006,30.854 -8.6575,6.3595 -24.5699,16.0422 -35.361,21.5171 -10.7911,5.4749 -28.0295,12.7772 -38.3074,16.2274 -10.2778,3.4502 -29.4487,8.0183 -42.6019,10.1515 -13.1532,2.1331 -34.2005,3.7436 -46.772,3.5789 -12.5714,-0.1648 -29.6174,-1.2855 -37.88,-2.4906 z m 110.2107,-260.6816 c -0.028,-5.2381 -1.136,-16.9524 -2.463,-26.0318 -1.3269,-9.0793 -4.2882,-22.7936 -6.5806,-30.4761 -3.0095,-10.0859 -7.4427,-17.2416 -15.9497,-25.745 -7.2852,-7.282 -15.659,-12.8501 -21.9405,-14.589 -5.5873,-1.5468 -15.8731,-2.8123 -22.8572,-2.8123 -6.9841,0 -17.0154,1.1988 -22.2916,2.664 -5.2763,1.4653 -13.6354,6.2132 -18.5758,10.5509 -4.9404,4.3378 -11.6099,13.1325 -14.821,19.544 -3.2111,6.4115 -7.0962,17.3715 -8.6337,24.3556 -1.5375,6.9841 -3.5425,21.5556 -4.4557,32.381 l -1.6602,19.6825 h 70.1396 70.1397 l -0.05,-9.5238 z m 1535.2884,261.9978 c -2.7937,-0.668 -15.1236,-3.5452 -27.3999,-6.3939 -12.2763,-2.8487 -30.236,-8.4435 -39.9104,-12.4329 -9.6746,-3.9895 -25.8189,-12.5768 -35.8763,-19.0829 -10.0576,-6.5061 -25.1055,-18.3019 -33.4397,-26.2127 -8.3345,-7.9108 -19.4449,-20.1589 -24.6896,-27.218 -5.2449,-7.059 -13.0656,-19.8263 -17.3793,-28.3717 -4.3136,-8.5454 -10.1577,-23.8897 -12.9866,-34.0985 -3.7725,-13.6133 -5.1195,-26.0221 -5.0532,-46.5489 0.051,-15.3931 1.6322,-34.2732 3.5169,-41.9558 1.8845,-7.6825 5.8568,-20.3551 8.8275,-28.1614 2.9706,-7.8062 11.204,-22.6633 18.2963,-33.0158 7.0926,-10.3525 15.9365,-22.0709 19.6536,-26.0409 3.7168,-3.97 13.6153,-12.6967 21.9962,-19.3928 8.381,-6.6961 22.0952,-16.1193 30.4762,-20.9404 8.381,-4.8212 22.6667,-11.6631 31.746,-15.2044 9.0794,-3.5412 20.508,-7.6899 25.3969,-9.2194 4.8888,-1.5294 20.5955,-4.5321 34.9038,-6.6727 14.3083,-2.1405 34.0348,-3.8919 43.837,-3.8919 9.8019,0 28.9524,1.7686 42.5564,3.9301 13.6038,2.1615 28.7345,5.1642 33.6234,6.6727 4.8889,1.5084 16.3174,5.635 25.3968,9.1701 9.0794,3.5352 23.3651,10.1894 31.746,14.7871 8.381,4.5978 22.9275,14.7072 32.3256,22.4655 9.3981,7.7582 22.7944,21.2442 29.7699,29.9688 6.9753,8.7246 17.2196,25.0057 22.7647,36.1803 5.5454,11.1747 12.0503,27.7461 14.4554,36.8254 2.8945,10.9262 4.3566,25.9542 4.3243,44.4445 -0.03,17.2673 -1.5505,33.3597 -3.9812,42.1367 -2.163,7.8102 -6.5191,20.3816 -9.68,27.9366 -3.1611,7.5549 -10.6164,21.1935 -16.5674,30.3079 -5.9507,9.1145 -17.4742,23.2847 -25.6076,31.4895 -8.1333,8.2047 -23.9416,20.926 -35.1294,28.2695 -11.188,7.3436 -27.188,16.3981 -35.5555,20.1213 -8.3678,3.7232 -25.4997,9.6592 -38.0711,13.1911 -19.4446,5.4629 -29.3029,6.5524 -66.0318,7.297 -23.746,0.4815 -45.4603,0.3288 -48.2539,-0.3391 z m 61.1705,-42.8732 c 8.0142,-2.3799 15.9561,-7.2117 21.9157,-13.3333 5.1405,-5.2805 12.2123,-15.8866 15.715,-23.5691 3.5025,-7.6825 7.6564,-22.2944 9.231,-32.4709 1.8748,-12.115 2.4889,-47.1852 1.7793,-101.5872 -0.8945,-68.5874 -1.8182,-85.2631 -5.294,-95.5686 -2.3156,-6.8662 -7.0905,-17.3989 -10.611,-23.4061 -3.5205,-6.0071 -10.4023,-13.9743 -15.2932,-17.7048 -4.8909,-3.7305 -15.3549,-8.2849 -23.2533,-10.1209 -10.8018,-2.5109 -17.5526,-2.677 -27.2412,-0.6699 -7.0844,1.4676 -15.1665,4.1112 -17.9601,5.8746 -2.7937,1.7634 -8.8945,7.0784 -13.5576,11.811 -4.6629,4.7326 -10.5077,12.6047 -12.9885,17.4936 -2.4807,4.8889 -6.0942,15.1746 -8.0297,22.8571 -2.6616,10.5633 -3.5195,35.327 -3.5195,101.5873 0,66.3013 0.8569,91.0176 3.5223,101.5873 1.9373,7.6826 6.1209,19.1112 9.297,25.3969 3.1762,6.2857 9.5912,15.035 14.2555,19.4428 4.6644,4.4079 13.6237,9.7819 19.9094,11.9423 6.2857,2.1604 15.5068,3.9825 20.4914,4.0492 4.9846,0.067 14.7187,-1.5584 21.6315,-3.6113 z m -3433.86892,31.7908 c -13.9682,-2.3937 -30.53968,-5.7998 -36.8254,-7.5691 -6.28571,-1.7693 -18.15278,-6.0391 -26.37125,-9.4884 -8.21848,-3.4494 -22.11512,-10.8014 -30.88139,-16.3378 -8.76627,-5.5364 -23.42484,-18.0019 -32.5746,-27.7012 -11.63597,-12.3347 -19.85542,-24.2864 -27.34784,-39.7657 -6.8944,-14.2438 -10.77729,-25.8052 -10.89539,-32.4412 l -0.18349,-10.3104 h 77.46032 77.46034 l 1.7091,16.5079 c 0.94,9.0794 3.4972,21.4683 5.6825,27.531 2.1854,6.0627 7.4645,15.4307 11.7312,20.8179 4.2965,5.4248 13.9104,12.8051 21.5484,16.542 12.2557,5.9962 16.1536,6.6472 35.0169,5.8488 18.3214,-0.7755 22.936,-1.9535 33.7213,-8.6087 8.2293,-5.0778 15.187,-12.1983 20.3793,-20.8557 4.3362,-7.23 9.1933,-19.6653 10.7936,-27.634 2.0446,-10.1808 2.9097,-76.218 2.9097,-222.1111 0,-114.1925 0.6937,-209.43045 1.5416,-211.63993 1.3611,-3.54699 11.0228,-4.01724 82.5397,-4.01724 h 80.9981 v 191.11107 c 0,164.4347 -0.5648,194.1244 -4.0584,212.6984 -2.766,14.7057 -8.0594,29.8074 -16.6052,47.3732 -10.8174,22.2351 -15.3465,28.4625 -32.8905,45.2239 -15.5952,14.8996 -25.7917,22.0887 -43.6709,30.7908 -12.829,6.2439 -30.7734,13.555 -39.8766,16.2467 -9.1031,2.6917 -28.4668,6.6608 -43.0303,8.8202 -14.7955,2.1938 -41.1296,3.7926 -59.6825,3.6235 -18.2803,-0.1666 -44.6179,-2.2588 -58.6003,-4.6549 z m 2786.03172,-1.3899 c -8.381,-1.8722 -20.3261,-5.2407 -26.545,-7.4856 -6.2187,-2.2448 -18.5283,-8.12 -27.3549,-13.0561 -8.8265,-4.936 -22.8122,-14.6038 -31.0797,-21.4839 -8.2671,-6.8802 -20.212,-19.7694 -26.544,-28.6427 -6.3319,-8.8734 -15.6078,-24.7573 -20.6135,-35.2977 -5.1086,-10.7571 -11.3829,-30.1555 -14.3025,-44.219 -4.0559,-19.5375 -4.8815,-30.3678 -3.7483,-49.1818 0.7989,-13.2698 3.8499,-32.6671 6.7796,-43.1051 2.9298,-10.4379 9.8058,-27.5808 15.2803,-38.0952 5.4743,-10.5144 15.6178,-26.1123 22.5412,-34.6619 6.9232,-8.5496 19.7984,-21.0082 28.611,-27.6857 8.813,-6.6776 24.0234,-15.8665 33.8012,-20.4199 9.7778,-4.5534 25.2063,-10.3286 34.2857,-12.8336 12.0691,-3.3299 25.3859,-4.5316 49.5238,-4.4687 22.1237,0.058 38.7909,1.5014 50.5204,4.3762 9.6277,2.3596 27.0562,8.7662 38.7302,14.2368 l 21.2256,9.9467 v -98.8829 -98.88287 h 80 80 v 271.74607 271.746 h -80 -80 v -10.4001 -10.4 l -11.0916,6.5 c -6.1003,3.5751 -17.381,8.8533 -25.0679,11.7294 -7.6871,2.8761 -22.7964,6.9168 -33.5764,8.9793 -10.7799,2.0626 -30.0708,3.6593 -42.8685,3.5482 -12.7978,-0.111 -30.1258,-1.7337 -38.5067,-3.6059 z m 110.4762,-57.35 c 6.2857,-2.8454 14.676,-8.2488 18.6453,-12.0078 3.9693,-3.7589 9.2897,-10.8625 11.823,-15.7857 2.5336,-4.9233 5.9515,-15.7891 7.5957,-24.1462 2.0345,-10.3411 2.6656,-38.7154 1.9759,-88.8265 -0.8536,-61.9985 -1.711,-75.4907 -5.4266,-85.3989 -2.4272,-6.4721 -8.3629,-16.3822 -13.1908,-22.0225 -5.3217,-6.2171 -13.5172,-12.0661 -20.8145,-14.8546 -6.6202,-2.5297 -18.3223,-4.5995 -26.0048,-4.5995 -7.6826,0 -19.3847,2.0698 -26.0049,4.5995 -7.2972,2.7885 -15.4928,8.6375 -20.8144,14.8546 -4.828,5.6403 -10.7637,15.5504 -13.1909,22.0225 -3.7156,9.9082 -4.573,23.4004 -5.4265,85.3989 -0.6898,50.1111 -0.059,78.4854 1.9758,88.8265 1.6442,8.3571 5.0621,19.2229 7.5957,24.1462 2.5333,4.9232 7.8537,12.0268 11.823,15.7857 3.9693,3.759 12.3596,9.1624 18.6453,12.0078 7.0522,3.1922 16.7774,5.1733 25.3969,5.1733 8.6194,0 18.3446,-1.9811 25.3968,-5.1733 z M 1035.9377,767.40534 v -182.8571 h 80 80 v 182.8571 182.8572 h -80 -80 z m 259.0476,0 v -182.8571 h 80 80 v 20.613 20.613 l 10.3034,-9.3085 c 5.6669,-5.1197 16.2383,-13.0803 23.4921,-17.6903 7.2537,-4.6099 20.6172,-11.3004 29.6966,-14.8677 9.0793,-3.5673 23.3651,-7.9091 31.746,-9.6485 8.381,-1.7394 27.2381,-3.1001 41.9048,-3.0239 14.9659,0.078 34.2655,1.9164 43.9849,4.1902 9.525,2.2284 26.0256,8.0746 36.6679,12.9917 10.6423,4.917 25.3291,13.4546 32.6373,18.9724 7.3082,5.5177 18.5715,16.899 25.0296,25.2917 6.458,8.3927 15.2188,22.6895 19.4683,31.7706 4.2496,9.0811 9.5478,22.5321 11.7738,29.891 3.3934,11.2183 4.2041,32.9722 5.0177,134.6497 l 0.9705,121.2699 h -80.0659 -80.0659 l -0.725,-126.3492 -0.725,-126.3492 -6.035,-13.3518 c -3.3192,-7.3435 -10.1183,-16.9371 -15.109,-21.319 -4.9908,-4.3819 -14.275,-10.3032 -20.6317,-13.1583 -8.7159,-3.9148 -16.8653,-5.1912 -33.1449,-5.1912 -16.2796,0 -24.429,1.2764 -33.1449,5.1912 -6.3567,2.8551 -15.5298,8.6788 -20.3847,12.9414 -4.8548,4.2626 -11.6539,13.2848 -15.109,20.0491 l -6.282,12.2989 -0.7242,127.619 -0.7243,127.6191 h -79.9107 -79.9107 z m 601.9048,-1.2698 v -184.127 h -44.4445 -44.4444 v -25.3968 -25.3968 h 44.4444 44.4445 v -36.8254 -36.82542 h 80 80 v 36.82542 36.8254 h 45.7143 45.7142 v 25.3968 25.3968 h -45.7142 -45.7143 v 184.127 184.127 h -80 -80 z m 825.3968,1.2698 v -182.8571 h 80 80 v 21.8609 21.8608 l 14.7014,-13.6069 c 8.0859,-7.4838 21.5452,-17.2523 29.9096,-21.7077 8.3645,-4.4555 25.4631,-11.1077 37.997,-14.7826 18.6799,-5.4769 28.0548,-6.6936 51.9952,-6.748 18.4129,-0.042 36.2455,1.5171 48.2539,4.2181 10.4762,2.3564 28.1905,8.6891 39.3651,14.0726 11.1746,5.3835 26.2334,14.7089 33.4639,20.7232 7.2304,6.0142 17.2934,16.3774 22.3619,23.0291 5.0687,6.6518 13.1167,20.3661 17.8844,30.4762 4.768,10.1102 10.6108,25.2392 12.9841,33.6202 3.7021,13.0723 4.4661,32.1132 5.3753,133.9682 l 1.0598,118.7302 h -80.2154 -80.2156 l -0.025,-113.6508 c 0,-67.1191 -1.1103,-120.3777 -2.6847,-130.0808 -1.4661,-9.0365 -4.335,-19.9481 -6.3753,-24.2478 -2.0404,-4.2998 -7.7044,-11.9303 -12.5865,-16.9566 -4.882,-5.0264 -14.2902,-11.7494 -20.9069,-14.94 -9.7902,-4.7207 -16.287,-5.801 -34.8876,-5.801 -18.7609,0 -25.0684,1.0656 -35.1954,5.9458 -6.7861,3.2702 -16.1227,9.8424 -20.7482,14.605 -4.6253,4.7625 -10.2791,12.5987 -12.5638,17.4137 -2.285,4.815 -5.2275,15.3059 -6.5389,23.3129 -1.3115,8.0071 -2.3912,66.2726 -2.3993,129.479 l -0.01,114.9206 h -80 -80 z m 1572.7967,-200.0013 c -7.2793,-2.4437 -18.4407,-8.1469 -24.8031,-12.6737 -6.3624,-4.5269 -14.9267,-13.5267 -19.0316,-19.9997 -4.1052,-6.4729 -8.7705,-18.0643 -10.368,-25.7586 -1.6897,-8.1389 -2.1623,-19.9272 -1.1304,-28.18669 0.9755,-7.80833 4.1828,-19.32206 7.1273,-25.58606 2.9443,-6.26402 9.4898,-15.52543 14.5453,-20.58095 5.0555,-5.05549 14.818,-11.94298 21.6945,-15.3055 8.9841,-4.39314 17.9934,-6.37704 32.0134,-7.04947 13.614,-0.65295 23.3781,0.34865 32.3056,3.31388 7.3625,2.44551 18.163,9.07655 25.4405,15.61956 7.2759,6.54184 15.6127,17.4338 19.6327,25.6501 5.9391,12.13941 6.9669,17.38697 6.8557,35.00443 -0.1169,18.4606 -1.0507,22.4498 -8.5522,36.5236 -4.6313,8.6897 -11.9446,18.7805 -16.2514,22.424 -4.3068,3.6436 -13.9573,9.4409 -21.4453,12.883 -8.2296,3.7828 -19.7821,6.6355 -29.2064,7.2118 -10.3718,0.6342 -20.0226,-0.5341 -28.8266,-3.4897 z m 52.6306,-15.8873 c 5.4928,-2.8022 13.7633,-8.4105 18.3789,-12.463 4.6153,-4.0524 11.1466,-12.8846 14.514,-19.627 3.3674,-6.7424 6.5951,-17.9912 7.1728,-24.9973 0.8008,-9.7114 -0.4614,-16.15309 -5.312,-27.10885 -3.4994,-7.90377 -11.0849,-18.95345 -16.8566,-24.55479 -5.7719,-5.60138 -15.7989,-11.99178 -22.2824,-14.20092 -6.4836,-2.20914 -17.5845,-4.01572 -24.669,-4.01463 -8.9107,10e-4 -17.6353,2.25118 -28.3052,7.299 -9.0438,4.27843 -18.7536,11.33585 -23.4723,17.06039 -4.4261,5.36986 -9.9147,15.38446 -12.1966,22.25466 -2.8094,8.45765 -3.6911,16.92834 -2.7309,26.23194 0.8097,7.8447 4.1189,18.3208 7.712,24.4146 3.4616,5.8707 9.5386,13.6881 13.5045,17.3722 3.966,3.6841 11.7821,9.0621 17.3694,11.9513 7.4537,3.8542 15.0885,5.2828 28.6725,5.3651 13.6889,0.083 21.1167,-1.2155 28.5009,-4.9827 z m -60.9829,-60.9367 v -43.17465 h 27.7417 c 26.1397,0 28.1928,0.37963 35.5556,6.57496 5.376,4.52371 7.8138,8.84426 7.8138,13.84876 0,4.00058 -1.2691,10.05915 -2.8203,13.46347 -1.551,3.40436 -5.551,7.65126 -8.8889,9.43756 -3.3376,1.7863 -6.0686,4.2261 -6.0686,5.4218 0,1.1956 4.0488,10.2135 8.9971,20.0396 l 8.9968,17.8657 -10.9015,-0.7862 c -10.7373,-0.7744 -11.0477,-1.0644 -20.5496,-19.199 -7.9777,-15.2253 -10.7256,-18.4127 -15.8731,-18.4127 -5.906,0 -6.2252,0.771 -6.2252,15.0304 0,8.2667 -0.6936,16.8381 -1.5416,19.0476 -0.914,2.3822 -4.5318,4.0173 -8.8889,4.0173 h -7.3473 z m 43.3008,-8.95416 c 5.1627,-2.66976 7.4929,-5.78415 7.4929,-10.01473 0,-3.46582 -2.4585,-7.86184 -5.6445,-10.09351 -3.1045,-2.17442 -10.5331,-3.95352 -16.5079,-3.95352 h -10.8635 v 12.27512 c 0,6.75134 0.7619,13.03706 1.6932,13.96826 0.931,0.93124 4.9879,1.69314 9.0148,1.69314 4.0272,0 10.6939,-1.74366 14.815,-3.87476 z M 1035.9377,460.1038 v -53.33333 h 80 80 v 53.33333 53.33334 h -80 -80 z M 1246.7314,166.77048 V 99.468888 h 284.4444 284.4444 v 67.301592 67.30158 h -284.4444 -284.4444 z m 571.4285,0 V 99.468888 h 160 l 162.3831,-0.170221 22.4691,69.514463 -22.4691,65.59937 -162.3831,-0.34044 h -160 z"
       id="path300" />
  </g>
</svg>
